HIERARCHY
ROOT Hips
{
	OFFSET	0.00	0.00	0.00
	CHANNELS 6 Xposition Yposition Zposition Zrotation Xrotation Yrotation
	JOINT LeftUpLeg
	{
		OFFSET	 0.126116	-0.014019	-0.065224
		CHANNELS 3 Zrotation Xrotation Yrotation
		JOINT LeftLeg
		{
			OFFSET	 0.000000	 0.000000	 0.569914
			CHANNELS 3 Zrotation Xrotation Yrotation
			JOINT LeftFoot
			{
				OFFSET	 0.000000	 0.000000	 0.544423
				CHANNELS 3 Zrotation Xrotation Yrotation
				JOINT LeftToeBase
				{
					OFFSET	 0.000000	 0.000000	 0.207117
					CHANNELS 3 Zrotation Xrotation Yrotation
					End Site
					{
						OFFSET	 0.000000	 0.000000	 0.207117
					}
				}
			}
		}
	}
	JOINT RightUpLeg
	{
		OFFSET	-0.124023	-0.008373	-0.065224
		CHANNELS 3 Zrotation Xrotation Yrotation
		JOINT RightLeg
		{
			OFFSET	 0.000000	 0.000000	 0.570047
			CHANNELS 3 Zrotation Xrotation Yrotation
			JOINT RightFoot
			{
				OFFSET	 0.000000	 0.000000	 0.544354
				CHANNELS 3 Zrotation Xrotation Yrotation
				JOINT RightToeBase
				{
					OFFSET	 0.000000	 0.000000	 0.207540
					CHANNELS 3 Zrotation Xrotation Yrotation
					End Site
					{
						OFFSET	 0.000000	 0.000000	 0.207540
					}
				}
			}
		}
	}
	JOINT Spine
	{
		OFFSET	 0.000184	-0.007763	 0.117403
		CHANNELS 3 Zrotation Xrotation Yrotation
		JOINT Spine1
		{
			OFFSET	 0.000000	 0.000000	 0.137269
			CHANNELS 3 Zrotation Xrotation Yrotation
			JOINT Spine2
			{
				OFFSET	 0.000000	 0.000000	 0.156879
				CHANNELS 3 Zrotation Xrotation Yrotation
				JOINT LeftShoulder
				{
					OFFSET	 0.080501	-0.002496	 0.160144
					CHANNELS 3 Zrotation Xrotation Yrotation
					JOINT LeftArm
					{
						OFFSET	 0.000000	 0.000000	 0.164363
						CHANNELS 3 Zrotation Xrotation Yrotation
						JOINT LeftForeArm
						{
							OFFSET	 0.000000	 0.000000	 0.364576
							CHANNELS 3 Zrotation Xrotation Yrotation
							JOINT LeftHand
							{
								OFFSET	 0.000000	 0.000000	 0.360812
								CHANNELS 3 Zrotation Xrotation Yrotation
								JOINT LeftHandIndex1
								{
									OFFSET	 0.000000	 0.000000	 0.086006
									CHANNELS 3 Zrotation Xrotation Yrotation
									JOINT LeftHandIndex2
									{
										OFFSET	 0.000000	 0.000000	 0.047237
										CHANNELS 3 Zrotation Xrotation Yrotation
										JOINT LeftHandIndex3
										{
											OFFSET	-0.004284	-0.000551	 0.038165
											CHANNELS 3 Zrotation Xrotation Yrotation
											End Site
											{
												OFFSET	-0.004284	-0.000551	 0.038165
											}
										}
									}
								}
							}
						}
					}
				}
				JOINT Neck
				{
					OFFSET	 0.000000	 0.000000	 0.176489
					CHANNELS 3 Zrotation Xrotation Yrotation
					JOINT Head
					{
						OFFSET	 0.000000	-0.001747	 0.077940
						CHANNELS 3 Zrotation Xrotation Yrotation
						End Site
						{
							OFFSET	 0.000000	-0.001747	 0.077940
						}
					}
				}
				JOINT RightShoulder
				{
					OFFSET	-0.080363	 0.000306	 0.159706
					CHANNELS 3 Zrotation Xrotation Yrotation
					JOINT RightArm
					{
						OFFSET	 0.000000	 0.000000	 0.164196
						CHANNELS 3 Zrotation Xrotation Yrotation
						JOINT RightForeArm
						{
							OFFSET	 0.000000	 0.000000	 0.365611
							CHANNELS 3 Zrotation Xrotation Yrotation
							JOINT RightHand
							{
								OFFSET	 0.000000	 0.000000	 0.360648
								CHANNELS 3 Zrotation Xrotation Yrotation
								JOINT RightHandIndex1
								{
									OFFSET	 0.000000	 0.000000	 0.069977
									CHANNELS 3 Zrotation Xrotation Yrotation
									JOINT RightHandIndex2
									{
										OFFSET	 0.000000	 0.000000	 0.052305
										CHANNELS 3 Zrotation Xrotation Yrotation
										JOINT RightHandIndex3
										{
											OFFSET	 0.009002	-0.000782	 0.042196
											CHANNELS 3 Zrotation Xrotation Yrotation
											End Site
											{
												OFFSET	 0.009002	-0.000782	 0.042196
											}
										}
									}
								}
							}
						}
					}
				}
			}
		}
	}
}
MOTION
Frames:    11
Frame Time: 0.03333334
-0.640013	-0.128192	 1.267496	-159.792500	 9.999462	 9.541944	-25.053770	-10.326070	 169.660300	-9.066150	-32.480330	-3.834324	 45.263440	 87.892720	-50.619550	-2.385833	 28.452760	 0.000004	 59.923670	-46.742840	-163.791600	-27.921530	-59.046220	-14.710280	 37.734150	 41.286190	-43.436480	 2.384659	 28.388700	-0.000001	 23.786450	-21.524370	-14.352340	 45.238300	 27.800040	 0.827332	-3.994020	-4.265434	-5.731192	-91.776120	 78.527400	 180.000000	 24.643260	 54.306860	-29.645900	-8.829144	-7.009658	-48.236950	 7.929038	-4.828981	-4.270608	-4.131196	 21.524690	 0.986298	-5.167839	 0.733520	 3.519257	-1.378229	 35.397820	-2.634230	-13.985230	 16.429760	-7.885442	-25.080490	 3.614787	 5.365953	 89.782110	 78.203870	 180.000000	 4.094559	 65.511470	-11.154350	-2.336499	-8.788523	 29.412010	 92.931790	-33.978540	-3.234290	 5.715225	 19.176060	-3.692089	 5.027514	 0.245388	-9.378011	-2.350882	 35.473990	 5.254307
-0.638596	-0.127041	 1.268461	-160.060600	 9.623538	 9.406726	-22.981490	-9.717485	 169.847200	-8.717701	-31.497710	-3.546774	 101.678500	 85.545080	-107.708900	-2.385833	 28.452760	 0.000004	 58.500840	-46.792650	-164.532400	-22.979990	-59.750000	-10.474010	 49.297700	 48.984160	-49.254030	 2.384659	 28.388700	-0.000001	 23.223660	-23.073200	-15.462860	 46.148100	 31.417760	-1.093790	-4.086065	-5.879571	-5.003615	-91.776160	 78.527350	 180.000000	 24.547130	 54.213030	-29.536610	-8.349921	-7.482887	-47.955450	 8.449494	-4.525953	-4.482077	-4.131196	 21.524690	 0.986298	-5.167839	 0.733520	 3.519257	-1.378229	 35.397820	-2.634230	-14.017250	 16.224970	-7.738266	-25.096050	 3.515143	 4.980050	 89.782140	 78.203870	 180.000000	 4.126872	 65.566870	-10.957590	-3.389651	-9.287190	 29.024190	 93.272740	-31.211670	-0.417261	 5.715225	 19.176060	-3.692089	 5.027514	 0.245388	-9.378011	-2.350882	 35.473990	 5.254307
-0.636098	-0.124934	 1.268581	-161.668600	 10.187460	 9.945329	-20.716280	-10.153480	 169.166200	-7.720777	-31.540250	-3.025013	 126.909300	 84.509380	-133.783400	-2.385833	 28.452760	 0.000004	 56.652190	-48.049360	-164.851600	-19.267520	-59.149710	-7.196724	 53.122480	 52.713760	-50.869500	 2.384659	 28.388700	-0.000001	 24.681560	-22.913060	-15.881280	 45.673770	 30.522800	 1.137014	-4.038362	-5.035248	-5.763963	-91.776210	 78.527360	-180.000000	 24.267130	 54.019760	-29.292430	-7.798307	-8.120563	-47.993940	 8.989044	-4.225288	-4.725109	-4.131196	 21.524690	 0.986298	-5.167839	 0.733520	 3.519257	-1.378229	 35.397820	-2.634230	-14.006120	 16.574090	-7.702046	-25.018590	 3.213809	 4.724092	 89.782100	 78.203830	 180.000000	 4.171768	 65.684950	-10.444770	-4.832907	-9.871371	 28.300870	 90.660480	-32.152740	-0.058609	 5.715225	 19.176060	-3.692089	 5.027514	 0.245388	-9.378011	-2.350882	 35.473990	 5.254307
-0.631583	-0.120914	 1.268736	-162.396800	 10.913220	 9.198756	-19.219180	-10.231790	 169.676700	-6.015177	-30.016650	-2.035085	 131.323400	 79.964940	-139.721300	-2.385833	 28.452760	 0.000004	 59.510530	-47.191180	-162.649900	-18.229460	-59.160160	-6.301814	 62.397480	 55.472770	-57.803090	 2.384659	 28.388700	-0.000001	 25.707340	-23.502830	-14.543570	 45.639320	 30.979660	 1.491852	-3.969134	-5.061554	-6.451145	-91.776180	 78.527360	 180.000000	 24.279310	 53.927530	-29.564640	-7.319930	-8.523763	-47.523000	 9.439118	-3.944749	-4.946495	-4.131196	 21.524690	 0.986298	-5.167839	 0.733520	 3.519257	-1.378229	 35.397820	-2.634230	-13.811850	 17.072010	-7.874866	-24.905960	 3.186242	 5.394802	 89.782080	 78.203930	 180.000000	 3.181407	 65.572810	-9.108938	-5.911480	-10.454520	 28.141400	 88.431880	-32.311650	 0.579311	 5.715225	 19.176060	-3.692089	 5.027514	 0.245388	-9.378011	-2.350882	 35.473990	 5.254307
-0.624963	-0.115248	 1.269161	-161.565600	 11.139750	 6.832372	-18.331570	-8.948550	 171.775000	-4.515720	-25.985650	-1.123811	 122.584900	 73.397530	-131.782300	-2.385833	 28.452760	 0.000004	 64.524880	-43.698630	-159.773800	-18.413620	-60.284200	-6.534451	 79.227040	 57.010790	-71.049920	 2.384659	 28.388700	-0.000001	 25.845390	-24.494760	-11.408560	 46.260190	 33.383090	-1.462520	-3.878796	-6.614218	-6.091052	-91.776180	 78.527380	-180.000000	 24.358060	 54.022090	-30.014880	-6.885964	-8.692758	-46.498500	 9.819770	-3.691118	-5.144702	-4.131196	 21.524690	 0.986298	-5.167839	 0.733520	 3.519257	-1.378229	 35.397820	-2.634230	-13.407520	 17.180750	-8.209626	-24.845680	 3.622097	 6.919277	 89.782140	 78.203900	 180.000000	 1.745490	 65.358510	-7.537035	-6.321390	-10.826840	 28.411410	 88.027310	-31.538860	 3.448932	 5.715225	 19.176060	-3.692089	 5.027514	 0.245388	-9.378011	-2.350882	 35.473990	 5.254307
-0.617524	-0.110057	 1.268368	-161.802300	 10.146110	 6.433244	-19.590880	-6.766616	 172.562300	-3.201248	-24.915070	-0.526289	 121.190300	 75.287750	-131.574100	-2.385833	 28.452760	 0.000004	 63.247070	-42.274450	-161.422500	-17.550430	-59.529740	-5.738294	 76.593800	 59.756970	-66.889640	 2.384659	 28.388700	-0.000001	 27.243600	-21.135570	-9.921247	 44.828140	 29.922080	-0.961579	-3.432118	-5.340842	-5.082613	-91.776140	 78.527420	 180.000000	 24.382030	 53.463900	-29.988120	-6.717106	-8.913614	-46.616550	 10.106100	-3.483764	-5.317039	-4.131196	 21.524690	 0.986298	-5.167839	 0.733520	 3.519257	-1.378229	 35.397820	-2.634230	-12.951900	 17.047910	-8.976322	-24.913280	 4.035171	 8.464575	 89.782100	 78.203870	 180.000000	-1.081967	 65.444800	-4.342275	-5.966188	-10.533600	 28.244440	 86.363750	-37.934810	 5.373654	 5.715225	 19.176060	-3.692089	 5.027514	 0.245388	-9.378011	-2.350882	 35.473990	 5.254307
-0.609330	-0.102720	 1.268381	-161.860100	 10.174510	 7.299190	-15.479490	-6.237585	 171.037500	-6.908519	-24.655090	-2.071879	 113.949000	 76.068700	-121.725500	-2.385833	 28.452760	 0.000004	 63.420510	-41.714370	-162.538300	-17.538710	-58.247960	-5.651823	 79.037780	 60.100760	-68.623670	 2.384659	 28.388700	-0.000001	 26.498170	-21.849770	-11.212460	 45.331290	 30.652610	-1.319864	-3.349222	-5.370474	-5.100585	-91.776160	 78.527420	 180.000000	 24.919030	 53.206840	-30.597520	-6.577894	-8.906197	-46.111960	 10.157460	-3.378461	-5.426815	-4.131196	 21.524690	 0.986298	-5.167839	 0.733520	 3.519257	-1.378229	 35.397820	-2.634230	-12.719370	 17.207760	-9.346749	-24.957600	 3.737040	 8.931739	 89.782100	 78.203870	 180.000000	-2.252315	 65.168330	-2.865247	-3.791331	-9.464498	 28.851420	 89.723450	-42.682160	 10.387670	 5.715225	 19.176060	-3.692089	 5.027514	 0.245388	-9.378011	-2.350882	 35.473990	 5.254307
-0.598724	-0.092890	 1.268006	-161.633500	 10.589240	 8.907713	-11.145430	-6.495271	 168.314300	-8.937487	-25.377450	-3.005936	 86.131940	 77.765020	-93.686420	-2.385833	 28.452760	 0.000004	 62.786870	-41.725080	-164.220200	-17.344590	-56.223830	-5.330221	 79.179600	 60.525640	-68.718070	 2.384659	 28.388700	-0.000001	 25.171510	-22.909500	-13.108810	 45.914260	 30.708270	-1.414851	-3.323870	-4.971037	-5.331243	-91.776130	 78.527380	 180.000000	 25.792590	 52.914020	-31.476760	-6.534343	-8.780105	-45.557650	 9.933559	-3.363782	-5.498219	-4.131196	 21.524690	 0.986298	-5.167839	 0.733520	 3.519257	-1.378229	 35.397820	-2.634230	-12.687650	 17.511850	-9.183457	-24.893900	 3.248620	 9.010746	 89.782130	 78.203900	 180.000000	-2.436758	 64.837340	-2.284993	-2.164381	-8.736263	 29.560270	 93.787930	-47.487720	 15.765240	 5.715225	 19.176060	-3.692089	 5.027514	 0.245388	-9.378011	-2.350882	 35.473990	 5.254307
-0.582223	-0.078329	 1.267153	-160.145100	 10.661270	 9.456710	-8.148982	-5.506280	 166.442200	-8.805572	-24.494810	-2.852770	 34.056350	 73.711170	-42.435710	-2.385833	 28.452760	 0.000004	 61.258980	-40.442380	-166.518000	-17.398410	-54.302820	-5.284887	 78.703610	 62.182530	-67.234630	 2.384659	 28.388700	-0.000001	 23.857260	-22.292170	-13.366500	 45.904770	 29.665530	-2.050509	-3.452986	-4.763070	-4.872290	-91.776190	 78.527400	-180.000000	 27.172100	 52.190180	-32.578630	-6.940661	-8.150696	-44.862850	 8.682478	-3.806380	-5.316832	-4.131196	 21.524690	 0.986298	-5.167839	 0.733520	 3.519257	-1.378229	 35.397820	-2.634230	-13.295010	 17.693040	-7.680816	-24.568630	 3.164452	 8.146543	 89.782110	 78.203890	 180.000000	-2.323455	 64.578090	-1.847057	-1.421235	-8.554208	 30.358710	 98.113530	-53.779160	 20.500030	 5.715225	 19.176060	-3.692089	 5.027514	 0.245388	-9.378011	-2.350882	 35.473990	 5.254307
-0.571647	-0.069388	 1.266760	-159.115000	 10.372390	 8.754480	-7.179086	-3.817493	 166.642000	-8.033469	-22.424720	-2.327343	 19.319120	 67.639740	-27.952830	-2.385833	 28.452760	 0.000004	 60.517330	-38.979870	-167.583800	-17.576980	-53.811030	-5.397044	 79.332140	 63.106280	-66.932970	 2.384659	 28.388700	-0.000001	 23.707470	-21.392380	-12.341260	 45.774970	 29.511170	-3.249786	-3.752888	-5.280851	-3.989606	-91.776170	 78.527380	 180.000000	 28.042290	 51.505840	-33.079270	-7.329374	-7.634256	-44.425320	 7.882739	-4.159743	-5.144768	-4.131196	 21.524690	 0.986298	-5.167839	 0.733520	 3.519257	-1.378229	 35.397820	-2.634230	-13.911570	 17.667890	-6.742378	-24.593320	 3.215607	 7.338567	 89.782160	 78.203870	 179.999900	-1.834241	 64.588840	-1.871220	-1.368203	-8.618354	 30.641990	 100.410100	-56.967980	 22.125230	 5.715225	 19.176060	-3.692089	 5.027514	 0.245388	-9.378011	-2.350882	 35.473990	 5.254307
-0.556569	-0.056550	 1.266977	-158.668400	 10.273030	 7.223092	-7.002974	-0.320576	 168.132100	-5.633915	-17.233890	-1.092170	 11.010480	 56.688350	-21.264740	-2.385833	 28.452760	 0.000004	 59.977390	-37.255790	-167.977300	-16.934080	-53.683820	-4.868112	 85.521700	 63.075110	-72.201030	 2.384659	 28.388700	-0.000001	 24.276200	-21.761130	-11.089190	 46.298030	 32.043000	-5.754696	-4.614201	-6.958339	-2.550471	-91.776210	 78.527380	-179.999900	 29.060560	 50.230790	-33.525950	-7.535628	-7.221470	-43.627320	 8.462138	-4.154440	-5.114440	-4.131196	 21.524690	 0.986298	-5.167839	 0.733520	 3.519257	-1.378229	 35.397820	-2.634230	-14.667830	 17.919410	-7.717679	-25.632470	 2.312870	 6.452324	 89.782140	 78.203900	 180.000000	 0.964656	 64.911810	-3.247154	-1.534290	-8.682045	 30.521110	 102.477900	-57.829290	 20.994730	 5.715225	 19.176060	-3.692089	 5.027514	 0.245388	-9.378011	-2.350882	 35.473990	 5.254307
